<svg width="424" height="280" version="1.1" xmlns="http://www.w3.org/2000/svg" desc="Created with imagetracer.js version 1.2.6" ><path fill="rgb(0,0,0)" stroke="rgb(0,0,0)" stroke-width="0" opacity="0" d="M 0 0 L 424 0 L 424 280 L 0 280 L 0 0 Z M 34 60 L 23 65 Q 13 72 10 86 L 10 88 Q 9 103 16 110 L 23 115 L 27 116 L 27 101 Q 23 98 24 92 L 24 90 L 23 88 L 27 79 L 36 75 Q 45 74 49 77 L 55 84 L 55 86 L 55 88 L 57 89 Q 54 92 55 99 L 52 102 L 52 108 L 55 116 L 62 111 Q 61 108 64 109 L 69 98 Q 71 82 65 74 Q 58 64 46 60 L 44 60 L 42 61 L 34 60 Z M 186 60 L 185 64 L 189 75 Q 188 77 191 76 L 190 78 Q 189 80 192 79 L 191 81 L 201 110 Q 203 112 209 111 Q 213 109 210 108 L 212 107 L 211 105 L 227 63 L 225 61 L 215 61 L 216 64 L 214 64 L 215 67 L 207 89 L 205 89 Q 206 86 204 87 L 204 86 L 196 61 L 187 61 L 186 60 Z M 231 60 L 230 111 L 240 111 L 239 110 L 239 92 L 252 92 L 254 91 Q 261 87 262 78 L 262 76 Q 261 67 256 63 Q 252 64 253 61 L 232 61 L 231 60 Z M 267 60 L 266 111 L 267 111 L 276 111 L 277 82 L 293 109 Q 295 113 303 111 L 304 110 L 304 63 L 305 61 L 294 61 L 294 89 L 292 89 L 290 83 L 278 65 Q 279 62 276 63 L 276 61 L 268 61 L 267 60 Z M 309 60 L 308 64 L 311 65 L 311 72 L 314 72 L 314 64 L 317 64 L 317 72 Q 321 73 319 67 L 320 67 Q 318 71 323 70 L 324 68 L 325 68 L 324 72 L 328 72 L 328 61 L 327 61 L 323 61 Q 324 64 322 63 L 320 60 L 317 61 L 315 61 Q 310 62 309 60 Z M 76 66 L 76 111 L 87 111 L 87 95 L 99 95 L 103 93 L 106 90 L 105 89 L 107 86 L 106 72 L 99 66 L 76 66 Z M 112 66 L 110 68 L 110 111 L 140 111 L 141 112 L 141 102 L 121 102 L 121 92 L 134 92 L 134 84 L 121 84 L 121 76 L 141 76 L 141 67 L 141 66 L 112 66 Z M 148 66 L 148 112 L 150 111 Q 154 110 156 112 Q 158 111 156 110 L 157 83 L 165 99 Q 164 101 167 100 L 172 112 L 178 111 Q 179 113 180 111 L 180 67 L 180 66 L 173 66 L 171 68 L 171 90 L 170 90 Q 171 87 168 88 L 158 70 L 158 66 L 148 66 Z M 37 81 L 33 83 Q 30 84 32 86 L 30 86 L 29 93 L 31 94 L 30 96 L 35 99 L 32 114 L 33 116 L 32 118 L 46 118 L 48 119 L 44 101 Q 49 98 50 93 L 50 89 L 49 86 Q 46 80 37 81 Z M 81 135 L 78 140 L 78 213 L 80 213 L 80 207 L 91 173 L 91 168 L 102 168 L 101 174 L 104 174 L 114 167 L 123 167 L 130 171 L 133 177 L 133 187 L 134 188 L 126 202 Q 120 211 108 213 Q 101 213 98 210 Q 95 211 96 209 L 92 207 Q 90 209 91 216 Q 87 217 90 219 L 86 230 L 165 230 L 168 229 L 172 223 L 172 154 L 171 152 L 166 152 L 162 154 L 157 165 L 157 168 L 164 168 L 165 175 L 163 177 L 153 177 L 149 195 L 149 197 L 147 199 L 144 211 L 134 211 L 132 210 L 141 181 L 141 177 L 136 177 L 138 172 Q 136 165 144 168 L 151 150 Q 157 141 171 142 L 170 138 L 167 135 L 81 135 Z M 191 166 L 184 169 L 178 177 L 178 187 L 180 189 Q 179 192 182 191 L 185 194 L 186 193 L 188 195 Q 195 195 200 198 Q 203 197 201 201 L 198 202 L 194 202 L 186 197 L 179 205 Q 176 204 177 209 Q 182 214 191 215 L 201 215 L 210 212 Q 215 208 217 201 L 217 197 L 214 191 L 207 185 L 195 182 Q 191 180 196 178 Q 203 177 205 181 L 210 179 L 214 174 L 214 171 Q 211 172 212 170 Q 205 164 191 166 Z M 238 166 L 231 169 Q 227 168 228 171 L 226 171 Q 220 176 218 185 Q 216 199 223 206 L 228 210 L 241 215 L 249 215 L 260 210 L 264 205 L 254 196 L 245 202 L 241 202 L 234 197 L 235 195 L 265 195 L 265 180 L 261 173 L 258 169 L 251 166 L 238 166 Z M 292 166 L 287 169 L 284 169 L 284 167 L 268 167 L 268 214 L 285 214 L 285 185 L 286 183 L 292 179 L 296 182 L 297 183 L 297 214 L 314 214 L 313 212 L 313 176 L 309 169 L 303 166 L 292 166 Z M 331 166 L 324 169 L 318 177 Q 317 188 321 193 L 327 195 L 336 196 L 341 200 L 338 202 L 334 202 L 326 197 L 324 198 L 318 205 L 317 209 L 321 212 L 330 215 L 345 214 L 352 210 L 356 203 Q 357 195 354 191 L 346 185 L 335 182 Q 331 180 336 178 L 341 178 L 346 182 L 350 178 L 349 177 L 352 176 Q 355 175 354 171 L 345 166 L 331 166 Z M 376 166 L 367 170 Q 360 175 358 184 Q 356 197 361 204 Q 367 212 379 215 L 388 215 L 398 211 L 402 207 L 402 204 L 394 197 L 392 197 L 385 202 Q 378 202 375 199 L 373 196 L 405 195 L 405 186 L 401 174 Q 395 163 376 166 Z M 110 177 L 104 180 L 101 182 L 96 190 Q 95 197 97 200 L 102 202 Q 111 204 115 199 L 121 190 L 120 182 Q 118 176 110 177 Z M 401 210 L 400 213 L 401 219 Q 403 222 409 220 Q 412 218 411 213 L 409 210 L 401 210 Z " /><path fill="rgb(0,0,0)" stroke="rgb(0,0,0)" stroke-width="0" opacity="0" d="M 239 70 Q 247.9 68.3 250 74.5 Q 250.8 80.3 247.5 82 L 239 83 L 239 70 Z " /><path fill="rgb(0,0,0)" stroke="rgb(0,0,0)" stroke-width="0" opacity="0" d="M 87 75 Q 93.5 73.8 96 77.5 L 97 83.5 Q 95 88.8 87 87 L 87 75 Z " /><path fill="rgb(0,0,0)" stroke="rgb(0,0,0)" stroke-width="0" opacity="0" d="M 240.5 177 L 248 179 L 250 183.5 L 234 184 L 238.5 178 L 240.5 177 Z " /><path fill="rgb(0,0,0)" stroke="rgb(0,0,0)" stroke-width="0" opacity="0" d="M 379.5 177 Q 387.4 176.1 389 181.5 L 388.5 184 L 373.5 184 L 374 182.5 L 377.5 178 L 379.5 177 Z " /><path fill="rgb(75,68,121)" stroke="rgb(75,68,121)" stroke-width="0" opacity="0.9725490196078431" d="M 35.5 61 L 43.5 61 L 50.5 63 L 61 70 L 67 81.5 L 68 95.5 L 63 108 Q 60.3 106.9 61 109.5 L 54.5 115 L 53 109.5 L 53 102.5 Q 59.2 98.2 57 85.5 L 48.5 75 L 42.5 73 L 36.5 73 Q 28.8 74.9 25 80.5 Q 21 85 22 94.5 L 27 104.5 L 24.5 115 L 22 114 L 13 100.5 L 11 87.5 Q 13.5 73 23.5 66 L 35.5 61 Z " /><path fill="rgb(75,68,121)" stroke="rgb(75,68,121)" stroke-width="0" opacity="0.9725490196078431" d="M 186 61 L 194.5 61 L 195 62.5 L 200 74.5 L 199 75.5 L 201 77.5 L 200 78.5 Q 203.1 80.3 201.5 82 Q 203.8 81.3 203 83.5 L 202.5 85 L 204 85.5 L 203 88 Q 205.7 86.9 205 89.5 L 204.5 91 L 207 89.5 L 217 61 L 224.5 61 L 226 62.5 L 209 111 Q 203.6 112.5 202 109.5 L 196 93.5 L 197 92.5 Q 193.9 90.8 195.5 89 Q 193.3 89.8 194 87.5 L 194.5 86 Q 192.3 86.8 193 84.5 L 193.5 83 L 192 82.5 L 192 80.5 L 186 61 Z M 206 92 L 206 93 L 206 92 Z " /><path fill="rgb(75,68,121)" stroke="rgb(75,68,121)" stroke-width="0" opacity="0.9725490196078431" d="M 231.5 61 L 249.5 61 L 258 67.5 L 260 70.5 Q 257.5 72 261 73.5 L 260 83 Q 257.3 81.9 258 84.5 L 257 88 L 247.5 92 L 239 92 L 239 111 L 230 111 L 230 62.5 L 231.5 61 Z M 239 70 L 239 83 L 248 83 Q 251 80 250 73 Q 248 68 247 71 L 246 70 L 239 70 Z " /><path fill="rgb(75,68,121)" stroke="rgb(75,68,121)" stroke-width="0" opacity="0.9725490196078431" d="M 267.5 61 L 274.5 61 L 275 62.5 L 283 73.5 L 283 76 Q 286 74.8 285 78.5 L 286 81 Q 289 79.8 288 83.5 L 295.5 94 L 296 61 L 303.5 61 L 304 61.5 L 304 109.5 Q 302.3 112.8 295.5 111 L 285 93 Q 282.3 94.1 283 91.5 L 275.5 79 L 275 111 L 266.5 111 L 266 110.5 L 266 62.5 L 267.5 61 Z " /><path fill="rgb(75,68,121)" stroke="rgb(75,68,121)" stroke-width="0" opacity="0.9725490196078431" d="M 309 61 L 315 61 L 315 63 L 313 63 L 313 70.5 L 311 71 L 311 63.5 Q 308.3 64.1 309 61 Z " /><path fill="rgb(75,68,121)" stroke="rgb(75,68,121)" stroke-width="0" opacity="0.9725490196078431" d="M 317 61 L 320 62.5 L 321 66 L 323 66 L 323 63 L 327 61 L 327 70.5 L 324.5 71 L 325 69.5 L 324.5 66 L 322.5 69 L 319.5 65 L 319 71 L 317 70.5 L 317 61 Z " /><path fill="rgb(75,68,121)" stroke="rgb(75,68,121)" stroke-width="0" opacity="0.9725490196078431" d="M 77 68 L 98.5 68 L 106 74.5 L 107 83.5 Q 105.8 89.3 101.5 92 L 97.5 94 L 86 94 L 86 110 L 77 110 L 77 68 Z M 86 74 L 86 88 L 96 87 L 99 82 L 98 78 Q 95 72 86 74 Z " /><path fill="rgb(75,68,121)" stroke="rgb(75,68,121)" stroke-width="0" opacity="0.9725490196078431" d="M 111 68 L 139.5 68 L 140 68.5 L 140 74 L 121.5 74 L 120 75.5 L 120 84 L 134 84 L 134 91 L 121.5 91 L 120 92.5 L 120 102.5 L 121.5 104 L 139.5 104 L 140 104.5 L 140 110 L 111 110 L 111 68 Z " /><path fill="rgb(75,68,121)" stroke="rgb(75,68,121)" stroke-width="0" opacity="0.9725490196078431" d="M 149 68 L 156.5 68 L 157 69.5 L 170 93 L 172 92.5 L 172 68 L 179 68 L 179 109.5 L 178.5 110 L 173 110 L 156.5 81 L 156 110 L 149.5 110 L 149 109.5 L 149 68 Z " /><path fill="rgb(75,68,121)" stroke="rgb(75,68,121)" stroke-width="0" opacity="0.9725490196078431" d="M 36.5 82 L 45 82 L 45 84 L 47 84 Q 45.9 86.7 48.5 86 L 48.5 88 L 50 88.5 L 48 93.5 L 48.5 95 L 47 95.5 Q 49.3 96.8 46.5 98 L 43 99.5 L 45 105.5 L 44 107.5 L 46 110.5 L 45 112.5 L 47 116.5 L 45.5 118 L 32.5 118 L 33 116.5 L 34 113.5 L 34 111.5 Q 33.3 105.8 36 103.5 L 36 101.5 L 36 99.5 L 31 93.5 L 31 87.5 L 34.5 83 L 36.5 82 Z " /><path fill="rgb(75,68,121)" stroke="rgb(75,68,121)" stroke-width="0" opacity="0.9725490196078431" d="M 82.5 137 L 89 137.5 L 81 140 L 80.5 145 L 80 139.5 L 82.5 137 Z " /><path fill="rgb(75,68,121)" stroke="rgb(75,68,121)" stroke-width="0" opacity="0.9725490196078431" d="M 161.5 137 Q 166.9 136.4 169 138 L 169 141 L 162.5 141 L 155.5 143 L 151 146.5 Q 143.8 154.1 143 167 Q 139.2 168.5 140 165.5 L 142 157.5 L 150.5 143 L 165 139.5 Q 160.8 139 161.5 137 Z " /><path fill="rgb(75,68,121)" stroke="rgb(75,68,121)" stroke-width="0" opacity="0.9725490196078431" d="M 165.5 152 Q 170.8 150.8 172 153.5 L 172 221.5 L 167.5 228 L 165.5 229 L 88 229 L 89 219.5 L 93.5 209 L 99.5 213 L 112.5 213 Q 115.3 208.8 121.5 208 L 126 203.5 L 133 191.5 Q 130.5 190 134 188.5 L 134.5 178 L 140 179 L 140 183.5 L 137 189.5 L 131 212 L 144.5 212 L 145 209.5 L 153 183.5 L 152 181.5 L 153 179 L 161.5 179 L 162 177.5 L 167 173.5 L 165 169.5 L 165.5 168 L 157 166.5 L 159 162.5 L 159 160.5 L 162.5 154 L 165.5 152 Z " /><path fill="rgb(75,68,121)" stroke="rgb(75,68,121)" stroke-width="0" opacity="0.9725490196078431" d="M 109.5 165 L 126.5 165 L 133.5 170 L 135.5 166 L 139 166.5 L 137 167 L 134.5 176 L 128.5 168 Q 123.1 164.4 112.5 166 L 105 169 L 104.5 171 L 104 168.5 L 104.5 167 L 103 166.5 L 105.5 166 L 107.5 166 L 109.5 165 Z " /><path fill="rgb(75,68,121)" stroke="rgb(75,68,121)" stroke-width="0" opacity="0.9725490196078431" d="M 87 166 L 93 166.5 L 90 167 L 86 178.5 L 85 186.5 L 83 189.5 L 80.5 203 L 80 193.5 L 87 166 Z " /><path fill="rgb(75,68,121)" stroke="rgb(75,68,121)" stroke-width="0" opacity="0.9725490196078431" d="M 191.5 167 Q 207.9 164.6 214 172.5 L 205.5 180 Q 203 175.5 194.5 177 L 192 180.5 L 194.5 184 L 205.5 186 L 214 191.5 Q 216.6 194.4 216 200.5 L 213 208 L 211 208 Q 212.1 210.7 209.5 210 Q 202.6 214.6 189.5 213 L 179 209 L 179 206.5 L 185.5 199 Q 189.2 204.8 200.5 203 Q 202.8 202.3 202 198.5 Q 197.5 194 188.5 194 L 181 189.5 Q 177.8 186.2 179 178.5 Q 180.5 172 185.5 169 L 191.5 167 Z " /><path fill="rgb(75,68,121)" stroke="rgb(75,68,121)" stroke-width="0" opacity="0.9725490196078431" d="M 237.5 167 Q 255.8 164.8 261 175.5 L 264 182.5 L 265 194 L 233.5 194 L 233 196.5 L 237.5 202 Q 240.7 204.3 247.5 203 L 253.5 198 L 262 204 L 258.5 209 L 255 210.5 L 255.5 212 L 253.5 211 Q 248.5 215 237.5 213 Q 228.3 210.2 223 203.5 Q 218.6 197.9 219 187.5 Q 220.7 176.2 228.5 171 L 237.5 167 Z M 240 176 Q 238 179 235 178 L 233 182 L 234 185 L 251 185 L 250 180 Q 247 175 240 176 Z " /><path fill="rgb(75,68,121)" stroke="rgb(75,68,121)" stroke-width="0" opacity="0.9725490196078431" d="M 290.5 167 Q 305.3 164.3 309 172.5 L 312 180.5 L 312 212 L 299 212 L 299 184.5 L 295.5 179 L 289.5 178 L 284 182.5 L 283 184.5 L 283 212 L 269.5 212 L 269 211.5 L 269 168 L 282 168 L 282 173.5 L 285 171.5 Q 284.3 169.3 286.5 170 L 290.5 167 Z " /><path fill="rgb(75,68,121)" stroke="rgb(75,68,121)" stroke-width="0" opacity="0.9725490196078431" d="M 330.5 167 Q 346.9 164.6 353 172.5 L 344.5 180 Q 342.3 175.7 334.5 177 L 332 178 L 332 183 L 333.5 183 L 347.5 187 L 353 191.5 L 355 201.5 L 349.5 211 L 347.5 211 Q 340.6 214.6 328.5 213 L 318 209 L 318 206.5 L 325.5 199 Q 328.5 205 339.5 203 L 342 199.5 L 338.5 196 L 327.5 194 L 320 188.5 L 318 184.5 L 318 182.5 Q 318.6 172.6 325.5 169 L 330.5 167 Z " /><path fill="rgb(75,68,121)" stroke="rgb(75,68,121)" stroke-width="0" opacity="0.9725490196078431" d="M 376.5 167 L 389.5 167 Q 396.3 169.3 400 174.5 L 403 180.5 L 404 194 L 372.5 194 L 372 195.5 L 375.5 201 Q 378.4 204.6 386.5 203 L 392.5 198 L 401 204.5 Q 402.1 207.8 399.5 207 L 395 210.5 L 395.5 212 L 393.5 211 Q 388.1 214.6 377.5 213 Q 366.8 210.7 362 202.5 Q 357.4 196.7 359 184.5 Q 361.3 176.8 366.5 172 L 376.5 167 Z M 380 176 L 374 179 L 372 185 L 390 185 L 391 184 L 390 181 Q 388 175 380 176 Z " /><path fill="rgb(75,68,121)" stroke="rgb(75,68,121)" stroke-width="0" opacity="0.9725490196078431" d="M 108.5 179 Q 116.8 177.7 119 182.5 L 119 190.5 L 113.5 199 Q 109.8 202.3 101.5 201 L 98 198.5 L 97 193.5 L 100 184.5 L 103.5 181 L 108.5 179 Z " /><path fill="rgb(75,68,121)" stroke="rgb(75,68,121)" stroke-width="0" opacity="0.9725490196078431" d="M 79.5 205 L 79.5 206 L 79.5 205 Z " /><path fill="rgb(75,68,121)" stroke="rgb(75,68,121)" stroke-width="0" opacity="0.9725490196078431" d="M 313.5 212 L 313.5 213 L 313.5 212 Z " /><path fill="rgb(75,68,121)" stroke="rgb(75,68,121)" stroke-width="0" opacity="0.9725490196078431" d="M 404.5 213 L 405 215.5 L 404 215.5 L 404.5 213 Z " /><path fill="rgb(75,68,121)" stroke="rgb(75,68,121)" stroke-width="0" opacity="0.9725490196078431" d="M 408.5 217 L 408.5 218 L 408.5 217 Z " /><path fill="rgb(91,131,185)" stroke="rgb(91,131,185)" stroke-width="0" opacity="0.6470588235294118" d="M 33.5 60 L 37 60.5 L 23.5 66 L 17 72.5 Q 10.8 79.3 11 92.5 L 16 106.5 L 22 114 L 24.5 115 L 26.5 105 L 27 116 L 22.5 115 L 16 109.5 Q 9 102.5 10 87.5 L 10 85.5 Q 12.6 71.6 22.5 65 L 33.5 60 Z " /><path fill="rgb(91,131,185)" stroke="rgb(91,131,185)" stroke-width="0" opacity="0.6470588235294118" d="M 42.5 60 L 44.5 61 L 47.5 60 Q 58.5 64.5 65 73.5 Q 71 81.5 69 97.5 L 64 109 Q 61.3 107.9 62 110.5 L 54.5 116 L 55.5 114 L 61 109.5 L 63 106.5 L 68 95.5 L 68 85.5 Q 66.1 75.8 61 70 L 54.5 65 L 44.5 62 L 42.5 60 Z " /><path fill="rgb(91,131,185)" stroke="rgb(91,131,185)" stroke-width="0" opacity="0.6470588235294118" d="M 185.5 60 L 187 65.5 L 186 65.5 L 185.5 60 Z " /><path fill="rgb(91,131,185)" stroke="rgb(91,131,185)" stroke-width="0" opacity="0.6470588235294118" d="M 230.5 60 L 231 61.5 L 230 61.5 L 230.5 60 Z " /><path fill="rgb(91,131,185)" stroke="rgb(91,131,185)" stroke-width="0" opacity="0.6470588235294118" d="M 266.5 60 L 267 61.5 L 266 61.5 L 266.5 60 Z " /><path fill="rgb(91,131,185)" stroke="rgb(91,131,185)" stroke-width="0" opacity="0.6470588235294118" d="M 308.5 60 L 309 63 L 311 63.5 L 308 64 L 308.5 60 Z " /><path fill="rgb(91,131,185)" stroke="rgb(91,131,185)" stroke-width="0" opacity="0.6470588235294118" d="M 315.5 60 L 317 64 L 314 64 L 314 72 L 311.5 72 L 311.5 71 L 313 71 L 313 63.5 Q 315.8 64.3 315.5 60 Z " /><path fill="rgb(91,131,185)" stroke="rgb(91,131,185)" stroke-width="0" opacity="0.6470588235294118" d="M 319.5 60 L 321.5 63 Q 324.1 63.7 323 61 L 325 61 Q 326 64 323 63 L 323 66 L 321 66 L 319.5 60 Z " /><path fill="rgb(91,131,185)" stroke="rgb(91,131,185)" stroke-width="0" opacity="0.6470588235294118" d="M 327.5 60 L 328 72 L 324 71.5 L 327 71 L 327.5 60 Z " /><path fill="rgb(91,131,185)" stroke="rgb(91,131,185)" stroke-width="0" opacity="0.6470588235294118" d="M 195.5 61 L 196 62.5 L 195 62.5 L 195.5 61 Z " /><path fill="rgb(91,131,185)" stroke="rgb(91,131,185)" stroke-width="0" opacity="0.6470588235294118" d="M 215 61 Q 218 60 217 63 Q 214 64 215 61 Z " /><path fill="rgb(91,131,185)" stroke="rgb(91,131,185)" stroke-width="0" opacity="0.6470588235294118" d="M 250.5 61 Q 254.3 60 253 63 L 250.5 61 Z " /><path fill="rgb(91,131,185)" stroke="rgb(91,131,185)" stroke-width="0" opacity="0.6470588235294118" d="M 275.5 61 L 276 63 Q 278.7 61.9 278 64.5 L 292 87.5 L 290 86.5 L 288 81 Q 285.3 82.1 286 79.5 L 285 76 Q 282 77.3 283 73.5 L 275 62.5 L 275.5 61 Z " /><path fill="rgb(91,131,185)" stroke="rgb(91,131,185)" stroke-width="0" opacity="0.6470588235294118" d="M 294 61 L 296 61.5 L 296 93.5 L 294 92.5 L 293 89.5 L 294 88.5 L 294 61 Z " /><path fill="rgb(91,131,185)" stroke="rgb(91,131,185)" stroke-width="0" opacity="0.6470588235294118" d="M 304.5 61 L 304.5 62 L 304.5 61 Z " /><path fill="rgb(91,131,185)" stroke="rgb(91,131,185)" stroke-width="0" opacity="0.6470588235294118" d="M 226.5 62 L 226 63.5 L 224.5 68 L 224 66.5 L 226.5 62 Z " /><path fill="rgb(91,131,185)" stroke="rgb(91,131,185)" stroke-width="0" opacity="0.6470588235294118" d="M 254.5 63 L 258 65.5 L 260 68.5 L 258 69 L 254.5 63 Z " /><path fill="rgb(91,131,185)" stroke="rgb(91,131,185)" stroke-width="0" opacity="0.6470588235294118" d="M 196.5 64 L 197 65.5 L 196 65.5 L 196.5 64 Z " /><path fill="rgb(91,131,185)" stroke="rgb(91,131,185)" stroke-width="0" opacity="0.6470588235294118" d="M 214 64 L 216 64.5 L 214 65.5 L 214 64 Z " /><path fill="rgb(91,131,185)" stroke="rgb(91,131,185)" stroke-width="0" opacity="0.6470588235294118" d="M 319.5 65 L 319.5 66 L 319.5 65 Z " /><path fill="rgb(91,131,185)" stroke="rgb(91,131,185)" stroke-width="0" opacity="0.6470588235294118" d="M 76 66 L 98.5 66 L 106 71.5 L 105.5 74 L 98.5 68 L 77 68 L 77 109.5 L 77.5 110 L 86 110 L 86 94 L 97.5 94 L 105.5 89 L 102.5 93 L 98.5 95 L 87 95 L 87 111 L 76 111 L 76 66 Z " /><path fill="rgb(91,131,185)" stroke="rgb(91,131,185)" stroke-width="0" opacity="0.6470588235294118" d="M 111.5 66 L 140.5 66 L 141 66.5 L 141 76 L 121 76 L 121 83.5 L 120 83.5 L 120 75.5 L 121.5 74 L 139.5 74 L 140 73.5 L 140 68 L 111 68 L 111 110 L 139.5 110 L 140 109.5 L 140 104 L 121.5 104 L 120 102.5 L 120 92.5 L 121.5 91 L 134 91.5 L 121 92 L 121 102 L 141 102 L 141 111.5 L 139.5 111 L 110 111 L 110 67.5 L 111.5 66 Z " /><path fill="rgb(91,131,185)" stroke="rgb(91,131,185)" stroke-width="0" opacity="0.6470588235294118" d="M 148 66 L 158 66 L 158 69.5 L 158.5 71 L 157 68 L 149.5 68 L 149 68.5 L 149 110 L 157 110.5 Q 155.8 113.3 154.5 111 Q 149.8 109.8 148.5 112 L 148 66 Z " /><path fill="rgb(91,131,185)" stroke="rgb(91,131,185)" stroke-width="0" opacity="0.6470588235294118" d="M 172.5 66 L 179.5 66 L 180 66.5 L 180 110.5 Q 178.8 113.3 177.5 111 L 172 112 L 167 100 Q 164.3 101.1 165 98.5 L 158 85.5 L 160 86.5 L 173 110 L 178.5 110 L 179 109.5 L 179 68 L 172 68 L 172 92.5 L 170 93 L 163 79.5 L 165 80.5 L 168 88 Q 170.7 86.9 170 89.5 L 171 89.5 L 171 67.5 L 172.5 66 Z " /><path fill="rgb(91,131,185)" stroke="rgb(91,131,185)" stroke-width="0" opacity="0.6470588235294118" d="M 324.5 66 L 324 67.5 L 322.5 70 Q 318.8 71.3 320 67.5 L 323 68.5 L 324.5 66 Z " /><path fill="rgb(91,131,185)" stroke="rgb(91,131,185)" stroke-width="0" opacity="0.6470588235294118" d="M 187.5 67 L 191 75.5 L 189 76 L 187 70.5 L 187.5 67 Z " /><path fill="rgb(91,131,185)" stroke="rgb(91,131,185)" stroke-width="0" opacity="0.6470588235294118" d="M 197.5 67 L 197.5 68 L 197.5 67 Z " /><path fill="rgb(91,131,185)" stroke="rgb(91,131,185)" stroke-width="0" opacity="0.6470588235294118" d="M 214.5 67 L 214.5 68 L 214.5 67 Z " /><path fill="rgb(91,131,185)" stroke="rgb(91,131,185)" stroke-width="0" opacity="0.6470588235294118" d="M 213.5 69 L 214 70.5 L 213 70.5 L 213.5 69 Z " /><path fill="rgb(91,131,185)" stroke="rgb(91,131,185)" stroke-width="0" opacity="0.6470588235294118" d="M 223.5 69 L 224 70.5 L 223 70.5 L 223.5 69 Z " /><path fill="rgb(91,131,185)" stroke="rgb(91,131,185)" stroke-width="0" opacity="0.6470588235294118" d="M 198.5 70 L 199 71.5 L 198 71.5 L 198.5 70 Z " /><path fill="rgb(91,131,185)" stroke="rgb(91,131,185)" stroke-width="0" opacity="0.6470588235294118" d="M 247.5 70 L 250 73.5 L 247 71.5 L 247.5 70 Z " /><path fill="rgb(91,131,185)" stroke="rgb(91,131,185)" stroke-width="0" opacity="0.6470588235294118" d="M 260.5 70 L 262 75.5 L 261 75.5 L 259 71.5 L 260.5 70 Z " /><path fill="rgb(91,131,185)" stroke="rgb(91,131,185)" stroke-width="0" opacity="0.6470588235294118" d="M 317.5 71 L 319 71.5 L 317.5 72 L 317.5 71 Z " /><path fill="rgb(91,131,185)" stroke="rgb(91,131,185)" stroke-width="0" opacity="0.6470588235294118" d="M 159.5 72 L 163 77.5 L 161 76.5 L 159.5 72 Z " /><path fill="rgb(91,131,185)" stroke="rgb(91,131,185)" stroke-width="0" opacity="0.6470588235294118" d="M 212.5 72 L 213 73.5 L 212 73.5 L 212.5 72 Z " /><path fill="rgb(91,131,185)" stroke="rgb(91,131,185)" stroke-width="0" opacity="0.6470588235294118" d="M 222.5 72 L 222.5 73 L 222.5 72 Z " /><path fill="rgb(91,131,185)" stroke="rgb(91,131,185)" stroke-width="0" opacity="0.6470588235294118" d="M 36.5 73 Q 50.9 72.1 55 81.5 L 57 88 L 55 87.5 L 55 85.5 L 55 83.5 L 48.5 77 Q 44.5 73.5 35.5 75 L 27 79 L 23 87.5 L 24 89.5 L 24 91.5 L 24 95.5 L 27 102.5 L 25 101.5 Q 21 97 22 87.5 Q 23.8 79.8 29.5 76 L 36.5 73 Z " /><path fill="rgb(91,131,185)" stroke="rgb(91,131,185)" stroke-width="0" opacity="0.6470588235294118" d="M 199.5 73 L 199.5 74 L 199.5 73 Z " /><path fill="rgb(91,131,185)" stroke="rgb(91,131,185)" stroke-width="0" opacity="0.6470588235294118" d="M 86 74 Q 95 72.3 98 77.5 L 99 81.5 L 95.5 87 L 86 88 L 86 74 Z M 87 75 L 87 87 Q 95 89 97 84 L 96 78 Q 94 74 87 75 Z " /><path fill="rgb(91,131,185)" stroke="rgb(91,131,185)" stroke-width="0" opacity="0.6470588235294118" d="M 221.5 74 L 222 76.5 L 219.5 82 L 219 80.5 L 221.5 74 Z " /><path fill="rgb(91,131,185)" stroke="rgb(91,131,185)" stroke-width="0" opacity="0.6470588235294118" d="M 106.5 75 L 107 76.5 L 106 76.5 L 106.5 75 Z " /><path fill="rgb(91,131,185)" stroke="rgb(91,131,185)" stroke-width="0" opacity="0.6470588235294118" d="M 199.5 75 Q 201.8 74.3 201 76.5 L 199.5 75 Z " /><path fill="rgb(91,131,185)" stroke="rgb(91,131,185)" stroke-width="0" opacity="0.6470588235294118" d="M 211.5 75 L 211.5 76 L 211.5 75 Z " /><path fill="rgb(91,131,185)" stroke="rgb(91,131,185)" stroke-width="0" opacity="0.6470588235294118" d="M 190.5 77 L 191.5 79 Q 188.7 79.7 190.5 77 Z " /><path fill="rgb(91,131,185)" stroke="rgb(91,131,185)" stroke-width="0" opacity="0.6470588235294118" d="M 261.5 77 L 262 79.5 L 257.5 87 L 257 85.5 L 258 83 Q 261.7 84.3 260 78.5 L 261.5 77 Z " /><path fill="rgb(91,131,185)" stroke="rgb(91,131,185)" stroke-width="0" opacity="0.6470588235294118" d="M 200.5 78 Q 202.8 77.3 202 79.5 L 200.5 78 Z " /><path fill="rgb(91,131,185)" stroke="rgb(91,131,185)" stroke-width="0" opacity="0.6470588235294118" d="M 210.5 78 L 210.5 79 L 210.5 78 Z " /><path fill="rgb(91,131,185)" stroke="rgb(91,131,185)" stroke-width="0" opacity="0.6470588235294118" d="M 249.5 79 L 249.5 80 L 249.5 79 Z " /><path fill="rgb(91,131,185)" stroke="rgb(91,131,185)" stroke-width="0" opacity="0.6470588235294118" d="M 275.5 79 L 277 81.5 L 276 82.5 L 275.5 111 L 275.5 79 Z " /><path fill="rgb(91,131,185)" stroke="rgb(91,131,185)" stroke-width="0" opacity="0.6470588235294118" d="M 191.5 80 L 192.5 82 Q 189.7 82.7 191.5 80 Z " /><path fill="rgb(91,131,185)" stroke="rgb(91,131,185)" stroke-width="0" opacity="0.6470588235294118" d="M 36.5 81 L 43 81.5 Q 35 81 31.5 85 L 32.5 83 L 36.5 81 Z " /><path fill="rgb(91,131,185)" stroke="rgb(91,131,185)" stroke-width="0" opacity="0.6470588235294118" d="M 156.5 81 L 158 83.5 L 156 82.5 L 156.5 81 Z " /><path fill="rgb(91,131,185)" stroke="rgb(91,131,185)" stroke-width="0" opacity="0.6470588235294118" d="M 201.5 81 L 203 81.5 L 201.5 82 L 201.5 81 Z " /><path fill="rgb(91,131,185)" stroke="rgb(91,131,185)" stroke-width="0" opacity="0.6470588235294118" d="M 209.5 81 L 209.5 82 L 209.5 81 Z " /><path fill="rgb(91,131,185)" stroke="rgb(91,131,185)" stroke-width="0" opacity="0.6470588235294118" d="M 248.5 81 L 247.5 83 L 246 82.5 L 248.5 81 Z " /><path fill="rgb(91,131,185)" stroke="rgb(91,131,185)" stroke-width="0" opacity="0.6470588235294118" d="M 45.5 83 L 49 85.5 L 47 86 Q 48.1 83.3 45.5 84 L 45.5 83 Z " /><path fill="rgb(91,131,185)" stroke="rgb(91,131,185)" stroke-width="0" opacity="0.6470588235294118" d="M 192 83 L 194 83.5 L 192 84.5 L 192 83 Z " /><path fill="rgb(91,131,185)" stroke="rgb(91,131,185)" stroke-width="0" opacity="0.6470588235294118" d="M 218.5 83 L 219 84.5 L 218 84.5 L 218.5 83 Z " /><path fill="rgb(91,131,185)" stroke="rgb(91,131,185)" stroke-width="0" opacity="0.6470588235294118" d="M 106.5 84 L 107 85.5 L 106 85.5 L 106.5 84 Z " /><path fill="rgb(91,131,185)" stroke="rgb(91,131,185)" stroke-width="0" opacity="0.6470588235294118" d="M 202.5 84 L 204 84.5 L 202.5 85 L 202.5 84 Z " /><path fill="rgb(91,131,185)" stroke="rgb(91,131,185)" stroke-width="0" opacity="0.6470588235294118" d="M 208.5 84 L 208.5 85 L 208.5 84 Z " /><path fill="rgb(91,131,185)" stroke="rgb(91,131,185)" stroke-width="0" opacity="0.6470588235294118" d="M 278.5 84 L 278.5 85 L 278.5 84 Z " /><path fill="rgb(91,131,185)" stroke="rgb(91,131,185)" stroke-width="0" opacity="0.6470588235294118" d="M 30 86 L 32 86.5 L 31 93 Q 27.3 94.3 29 88.5 L 30 86 Z " /><path fill="rgb(91,131,185)" stroke="rgb(91,131,185)" stroke-width="0" opacity="0.6470588235294118" d="M 193 86 L 195 86.5 L 193 87.5 L 193 86 Z " /><path fill="rgb(91,131,185)" stroke="rgb(91,131,185)" stroke-width="0" opacity="0.6470588235294118" d="M 217.5 86 L 218 87.5 L 217 87.5 L 217.5 86 Z " /><path fill="rgb(91,131,185)" stroke="rgb(91,131,185)" stroke-width="0" opacity="0.6470588235294118" d="M 279.5 86 L 280.5 88 L 279.5 86 Z " /><path fill="rgb(91,131,185)" stroke="rgb(91,131,185)" stroke-width="0" opacity="0.6470588235294118" d="M 48.5 87 L 50 87.5 L 48.5 88 L 48.5 87 Z " /><path fill="rgb(91,131,185)" stroke="rgb(91,131,185)" stroke-width="0" opacity="0.6470588235294118" d="M 105.5 87 L 105.5 88 L 105.5 87 Z " /><path fill="rgb(91,131,185)" stroke="rgb(91,131,185)" stroke-width="0" opacity="0.6470588235294118" d="M 203.5 87 L 205 87.5 L 203.5 88 L 203.5 87 Z " /><path fill="rgb(91,131,185)" stroke="rgb(91,131,185)" stroke-width="0" opacity="0.6470588235294118" d="M 207.5 87 L 207.5 88 L 207.5 87 Z " /><path fill="rgb(91,131,185)" stroke="rgb(91,131,185)" stroke-width="0" opacity="0.6470588235294118" d="M 255.5 88 L 253.5 91 L 248.5 92 L 248.5 91 L 251.5 91 L 255.5 88 Z " /><path fill="rgb(91,131,185)" stroke="rgb(91,131,185)" stroke-width="0" opacity="0.6470588235294118" d="M 56.5 89 L 57 96.5 Q 52.2 99.7 52.5 108 L 52 101.5 L 55 98.5 L 56.5 89 Z " /><path fill="rgb(91,131,185)" stroke="rgb(91,131,185)" stroke-width="0" opacity="0.6470588235294118" d="M 194 89 L 196 89.5 L 195 90.5 L 197 92.5 L 196.5 95 L 194 89 Z " /><path fill="rgb(91,131,185)" stroke="rgb(91,131,185)" stroke-width="0" opacity="0.6470588235294118" d="M 205.5 89 L 207 89.5 L 204.5 91 L 205.5 89 Z " /><path fill="rgb(91,131,185)" stroke="rgb(91,131,185)" stroke-width="0" opacity="0.6470588235294118" d="M 216.5 89 L 217 90.5 L 215 91.5 L 216.5 89 Z " /><path fill="rgb(91,131,185)" stroke="rgb(91,131,185)" stroke-width="0" opacity="0.6470588235294118" d="M 281.5 89 L 281.5 90 L 281.5 89 Z " /><path fill="rgb(91,131,185)" stroke="rgb(91,131,185)" stroke-width="0" opacity="0.6470588235294118" d="M 49.5 90 L 49.5 91 L 49.5 90 Z " /><path fill="rgb(91,131,185)" stroke="rgb(91,131,185)" stroke-width="0" opacity="0.6470588235294118" d="M 49.5 92 L 50 94 L 48 93.5 L 49.5 92 Z " /><path fill="rgb(91,131,185)" stroke="rgb(91,131,185)" stroke-width="0" opacity="0.6470588235294118" d="M 205.5 92 L 205.5 93 L 205.5 92 Z " /><path fill="rgb(91,131,185)" stroke="rgb(91,131,185)" stroke-width="0" opacity="0.6470588235294118" d="M 284.5 93 L 286 95.5 L 284 94.5 L 284.5 93 Z " /><path fill="rgb(91,131,185)" stroke="rgb(91,131,185)" stroke-width="0" opacity="0.6470588235294118" d="M 30 94 Q 32.7 92.9 32 95.5 L 36 99.5 L 36 101.5 L 35 101.5 Q 36.1 98.2 33.5 99 L 30 94 Z " /><path fill="rgb(91,131,185)" stroke="rgb(91,131,185)" stroke-width="0" opacity="0.6470588235294118" d="M 214.5 94 L 214.5 95 L 214.5 94 Z " /><path fill="rgb(91,131,185)" stroke="rgb(91,131,185)" stroke-width="0" opacity="0.6470588235294118" d="M 47.5 95 L 49 95.5 L 47.5 96 L 47.5 95 Z " /><path fill="rgb(91,131,185)" stroke="rgb(91,131,185)" stroke-width="0" opacity="0.6470588235294118" d="M 197.5 97 L 197.5 98 L 197.5 97 Z " /><path fill="rgb(91,131,185)" stroke="rgb(91,131,185)" stroke-width="0" opacity="0.6470588235294118" d="M 213.5 97 L 213.5 98 L 213.5 97 Z " /><path fill="rgb(91,131,185)" stroke="rgb(91,131,185)" stroke-width="0" opacity="0.6470588235294118" d="M 286.5 97 L 287.5 99 L 286.5 97 Z " /><path fill="rgb(91,131,185)" stroke="rgb(91,131,185)" stroke-width="0" opacity="0.6470588235294118" d="M 44.5 98 L 46 98.5 L 43.5 100 L 44.5 98 Z " /><path fill="rgb(91,131,185)" stroke="rgb(91,131,185)" stroke-width="0" opacity="0.6470588235294118" d="M 198.5 99 L 199 100.5 L 198 100.5 L 198.5 99 Z " /><path fill="rgb(91,131,185)" stroke="rgb(91,131,185)" stroke-width="0" opacity="0.6470588235294118" d="M 212.5 100 L 212.5 101 L 212.5 100 Z " /><path fill="rgb(91,131,185)" stroke="rgb(91,131,185)" stroke-width="0" opacity="0.6470588235294118" d="M 288.5 100 L 294 108.5 L 293 108.5 L 288.5 100 Z " /><path fill="rgb(91,131,185)" stroke="rgb(91,131,185)" stroke-width="0" opacity="0.6470588235294118" d="M 44.5 101 L 45 104.5 L 44 104.5 L 44.5 101 Z " /><path fill="rgb(91,131,185)" stroke="rgb(91,131,185)" stroke-width="0" opacity="0.6470588235294118" d="M 199.5 102 L 202 109.5 L 201 109.5 L 199.5 102 Z " /><path fill="rgb(91,131,185)" stroke="rgb(91,131,185)" stroke-width="0" opacity="0.6470588235294118" d="M 211.5 102 L 212 103.5 L 211 103.5 L 211.5 102 Z " /><path fill="rgb(91,131,185)" stroke="rgb(91,131,185)" stroke-width="0" opacity="0.6470588235294118" d="M 34 103 L 36 103.5 L 34.5 107 L 34 103 Z " /><path fill="rgb(91,131,185)" stroke="rgb(91,131,185)" stroke-width="0" opacity="0.6470588235294118" d="M 210 105 Q 213 104 212 107 Q 209 108 210 105 Z " /><path fill="rgb(91,131,185)" stroke="rgb(91,131,185)" stroke-width="0" opacity="0.6470588235294118" d="M 44 106 Q 47 104.8 46 108.5 L 44 107.5 L 44 106 Z " /><path fill="rgb(91,131,185)" stroke="rgb(91,131,185)" stroke-width="0" opacity="0.6470588235294118" d="M 33.5 108 L 34 111.5 L 33 111.5 L 33.5 108 Z " /><path fill="rgb(91,131,185)" stroke="rgb(91,131,185)" stroke-width="0" opacity="0.6470588235294118" d="M 209 108 L 211 108.5 L 209 109.5 L 209 108 Z " /><path fill="rgb(91,131,185)" stroke="rgb(91,131,185)" stroke-width="0" opacity="0.6470588235294118" d="M 53.5 110 L 54 112.5 L 53 112.5 L 53.5 110 Z " /><path fill="rgb(91,131,185)" stroke="rgb(91,131,185)" stroke-width="0" opacity="0.6470588235294118" d="M 239.5 110 L 239.5 111 L 239.5 110 Z " /><path fill="rgb(91,131,185)" stroke="rgb(91,131,185)" stroke-width="0" opacity="0.6470588235294118" d="M 45 111 Q 48 109.8 47 113.5 L 45 112.5 L 45 111 Z " /><path fill="rgb(91,131,185)" stroke="rgb(91,131,185)" stroke-width="0" opacity="0.6470588235294118" d="M 32 113 Q 35 112 34 115 Q 31 116 32 113 Z " /><path fill="rgb(91,131,185)" stroke="rgb(91,131,185)" stroke-width="0" opacity="0.6470588235294118" d="M 32.5 116 L 32.5 117 L 32.5 116 Z " /><path fill="rgb(91,131,185)" stroke="rgb(91,131,185)" stroke-width="0" opacity="0.6470588235294118" d="M 47.5 116 L 48 119 Q 45.3 120.1 46 117.5 L 47.5 116 Z " /><path fill="rgb(91,131,185)" stroke="rgb(91,131,185)" stroke-width="0" opacity="0.6470588235294118" d="M 81 135 L 166.5 135 L 170 137.5 L 171 142 Q 156.5 140.8 151 149.5 L 143.5 168 Q 136.2 165.4 138 171.5 L 136 177 L 141 177 L 141 180.5 L 140 180.5 Q 140.9 177.1 135.5 179 L 134 178.5 L 133.5 187 L 133 176.5 L 130 171 L 122.5 167 L 113.5 167 L 103.5 174 L 101 174 L 102 168 L 91 168 L 91 172.5 L 80 206.5 L 80 213 L 78 212.5 L 78 139.5 L 81 135 Z M 83 137 L 80 140 L 81 145 L 81 140 L 89 138 L 83 137 Z M 162 137 Q 161 139 165 140 L 151 143 L 142 158 L 140 166 Q 139 168 143 167 Q 144 154 151 147 L 156 143 L 163 141 L 169 141 L 169 138 Q 167 136 162 137 Z M 110 165 L 108 166 L 106 166 L 103 167 L 105 167 L 104 169 L 105 171 L 105 169 L 113 166 Q 123 164 129 168 L 135 176 L 137 167 L 139 167 L 136 166 L 134 170 L 127 165 L 110 165 Z M 87 166 L 80 194 L 81 203 L 83 190 L 85 187 L 86 179 L 90 167 L 93 167 L 87 166 Z M 80 205 L 80 206 L 80 205 Z " /><path fill="rgb(91,131,185)" stroke="rgb(91,131,185)" stroke-width="0" opacity="0.6470588235294118" d="M 161.5 154 L 161 155.5 L 160.5 157 L 160 155.5 L 161.5 154 Z " /><path fill="rgb(91,131,185)" stroke="rgb(91,131,185)" stroke-width="0" opacity="0.6470588235294118" d="M 158.5 160 L 158.5 161 L 158.5 160 Z " /><path fill="rgb(91,131,185)" stroke="rgb(91,131,185)" stroke-width="0" opacity="0.6470588235294118" d="M 158.5 162 L 158.5 163 L 158.5 162 Z " /><path fill="rgb(91,131,185)" stroke="rgb(91,131,185)" stroke-width="0" opacity="0.6470588235294118" d="M 157.5 164 L 158 165.5 L 157 165.5 L 157.5 164 Z " /><path fill="rgb(91,131,185)" stroke="rgb(91,131,185)" stroke-width="0" opacity="0.6470588235294118" d="M 190.5 166 Q 205.2 163.8 212 169.5 L 210.5 170 Q 204.7 164.8 191.5 167 L 186.5 169 L 187.5 167 L 190.5 166 Z " /><path fill="rgb(91,131,185)" stroke="rgb(91,131,185)" stroke-width="0" opacity="0.6470588235294118" d="M 237.5 166 L 250.5 166 L 257.5 169 L 261 172.5 L 265 179.5 L 265 187.5 L 264 187.5 Q 263.4 174 254.5 169 Q 248.7 165.3 237.5 167 Q 227.6 169.1 223 176.5 Q 218.6 182.1 219 192.5 L 223 203.5 L 227.5 208 Q 234 215 249.5 213 Q 257.7 211.2 262 205.5 Q 262.8 203.3 260.5 204 L 253.5 198 L 247.5 203 L 239.5 203 L 234 198.5 L 233 194 L 265 194.5 L 234 195 L 237.5 200 Q 239.2 202.8 244.5 202 L 253.5 196 L 264 204.5 L 259.5 210 L 248.5 215 L 240.5 215 L 227.5 210 L 223 205.5 Q 216.2 199.3 218 184.5 Q 219.9 175.9 225.5 171 L 228 171 Q 226.8 168 230.5 169 L 237.5 166 Z " /><path fill="rgb(91,131,185)" stroke="rgb(91,131,185)" stroke-width="0" opacity="0.6470588235294118" d="M 291.5 166 L 302.5 166 L 309 169 L 313 175.5 L 313 212.5 L 314 213.5 L 297 214 L 297 182.5 L 295.5 182 L 291.5 179 L 286 182.5 L 285 184.5 L 285 214 L 268 214 L 268 167 L 283.5 167 L 284 169 L 286.5 169 L 289.5 167 L 289.5 168 L 285 170 L 282.5 174 L 282 168 L 269.5 168 L 269 168.5 L 269 212 L 283 212 L 283 184.5 L 287.5 179 L 293.5 178 L 298 181.5 L 299 184.5 L 299 212 L 312 212 L 312 180.5 Q 310.5 172 304.5 168 L 302.5 167 L 291.5 167 L 291.5 166 Z " /><path fill="rgb(91,131,185)" stroke="rgb(91,131,185)" stroke-width="0" opacity="0.6470588235294118" d="M 330.5 166 L 344.5 166 L 354 170.5 Q 354.8 175.3 351.5 176 L 350 175.5 Q 356.3 172.3 349.5 169 Q 342.6 165.4 330.5 167 Q 323.3 168.8 320 174.5 L 318.5 180 L 318 176.5 L 323.5 169 L 330.5 166 Z " /><path fill="rgb(91,131,185)" stroke="rgb(91,131,185)" stroke-width="0" opacity="0.6470588235294118" d="M 375.5 166 Q 394.8 163.2 401 173.5 L 405 185.5 L 405 195 L 373 195.5 L 375 199 Q 378 201.7 384.5 202 L 391.5 197 L 393.5 197 L 402 203.5 L 402 206.5 L 397.5 211 L 387.5 215 L 378.5 215 Q 366.9 212.1 361 203.5 Q 356 196.9 358 183.5 Q 360.1 174.6 366.5 170 L 375.5 166 Z M 377 167 L 367 172 Q 361 177 359 185 Q 357 197 362 203 Q 367 211 378 213 Q 393 215 400 207 Q 402 208 401 205 L 393 198 L 387 203 Q 378 205 376 201 L 372 196 L 373 194 L 404 194 L 403 181 L 400 175 Q 396 169 390 167 L 377 167 Z " /><path fill="rgb(91,131,185)" stroke="rgb(91,131,185)" stroke-width="0" opacity="0.6470588235294118" d="M 157.5 167 Q 163.6 165.9 166 168.5 Q 163.5 170 167 171.5 L 165.5 175 L 164 168 L 157.5 168 L 157.5 167 Z " /><path fill="rgb(91,131,185)" stroke="rgb(91,131,185)" stroke-width="0" opacity="0.6470588235294118" d="M 183.5 169 L 185 169.5 Q 178 173.5 179 185.5 L 182.5 191 L 188.5 194 L 198.5 196 L 202 198.5 Q 202.8 202.3 200.5 203 Q 189.2 204.8 185.5 199 L 179 206.5 L 179 209 Q 186.2 214.6 201.5 213 L 211 210 Q 209.9 207.3 212.5 208 L 209.5 212 L 200.5 215 L 190.5 215 Q 181.9 213.6 177 208.5 Q 175.5 204.1 178.5 205 L 185.5 197 L 193.5 202 L 197.5 202 L 201 201 Q 202.5 197.2 199.5 198 Q 195.2 194.8 187.5 195 L 185.5 193 L 184.5 194 L 181.5 191 Q 178.9 191.8 180 188.5 L 178 186.5 L 178 176.5 L 183.5 169 Z " /><path fill="rgb(91,131,185)" stroke="rgb(91,131,185)" stroke-width="0" opacity="0.6470588235294118" d="M 213.5 171 L 213.5 172 L 213.5 171 Z " /><path fill="rgb(91,131,185)" stroke="rgb(91,131,185)" stroke-width="0" opacity="0.6470588235294118" d="M 213.5 173 L 212 175.5 L 209.5 179 L 204.5 181 Q 202.6 176.9 195.5 178 Q 191 180 194.5 182 L 206.5 185 L 214 190.5 L 211.5 189 L 205.5 186 L 194.5 184 L 193 182.5 L 192 179.5 Q 193.8 175.3 201.5 177 L 205.5 180 L 213.5 173 Z " /><path fill="rgb(91,131,185)" stroke="rgb(91,131,185)" stroke-width="0" opacity="0.6470588235294118" d="M 239.5 176 Q 247.5 175 250 179.5 L 251 185 L 233.5 185 L 233 181.5 L 235 178 Q 238.4 178.8 239.5 176 Z M 241 177 L 239 178 L 234 184 L 250 184 L 248 179 L 241 177 Z " /><path fill="rgb(91,131,185)" stroke="rgb(91,131,185)" stroke-width="0" opacity="0.6470588235294118" d="M 379.5 176 Q 388.1 174.9 390 180.5 L 391 183.5 L 389.5 185 L 372 185 L 374 179 L 379.5 176 Z M 380 177 L 378 178 L 374 183 L 374 184 L 389 184 L 389 182 Q 387 176 380 177 Z " /><path fill="rgb(91,131,185)" stroke="rgb(91,131,185)" stroke-width="0" opacity="0.6470588235294118" d="M 109.5 177 Q 117.6 176.4 120 181.5 L 121 189.5 L 114.5 199 L 116 196.5 Q 120.3 192.3 119 182.5 Q 116.8 177.7 108.5 179 Q 102.8 180.3 100 184.5 L 97 194.5 L 99.5 200 Q 102.7 202.3 109.5 201 L 112.5 199 L 111.5 201 Q 108.3 203.3 101.5 202 L 97 200 Q 95 197 96 189.5 L 100.5 182 L 103.5 180 L 109.5 177 Z " /><path fill="rgb(91,131,185)" stroke="rgb(91,131,185)" stroke-width="0" opacity="0.6470588235294118" d="M 153 177 L 161.5 177 L 162 179 L 153.5 179 L 153 177 Z " /><path fill="rgb(91,131,185)" stroke="rgb(91,131,185)" stroke-width="0" opacity="0.6470588235294118" d="M 334.5 177 Q 342.6 175.9 345.5 180 L 349.5 177 L 345.5 182 L 340.5 178 L 335.5 178 Q 331 180 334.5 182 L 345.5 185 L 354 190.5 Q 357 194.5 356 202.5 L 351.5 210 L 350 209.5 L 355 201.5 Q 352.3 199.8 354 193.5 L 350.5 189 L 344.5 186 L 332 183 L 332 178 L 333.5 178 L 334.5 177 Z " /><path fill="rgb(91,131,185)" stroke="rgb(91,131,185)" stroke-width="0" opacity="0.6470588235294118" d="M 152.5 183 L 152 184.5 L 150 194.5 L 148.5 196 L 149 194.5 Q 149 187 152.5 183 Z " /><path fill="rgb(91,131,185)" stroke="rgb(91,131,185)" stroke-width="0" opacity="0.6470588235294118" d="M 318.5 183 L 318.5 184 L 318.5 183 Z " /><path fill="rgb(91,131,185)" stroke="rgb(91,131,185)" stroke-width="0" opacity="0.6470588235294118" d="M 318.5 185 L 322.5 191 L 331 194.5 L 326.5 195 L 321 193 L 318.5 185 Z " /><path fill="rgb(91,131,185)" stroke="rgb(91,131,185)" stroke-width="0" opacity="0.6470588235294118" d="M 138.5 186 L 139 187.5 L 138 187.5 L 138.5 186 Z " /><path fill="rgb(91,131,185)" stroke="rgb(91,131,185)" stroke-width="0" opacity="0.6470588235294118" d="M 133.5 188 L 132.5 190 L 133.5 188 Z " /><path fill="rgb(91,131,185)" stroke="rgb(91,131,185)" stroke-width="0" opacity="0.6470588235294118" d="M 137.5 189 L 138 191.5 L 137 191.5 L 137.5 189 Z " /><path fill="rgb(91,131,185)" stroke="rgb(91,131,185)" stroke-width="0" opacity="0.6470588235294118" d="M 132.5 191 L 132 192.5 Q 128.9 202.4 121.5 208 L 118.5 209 L 119.5 207 L 126 201.5 L 132.5 191 Z " /><path fill="rgb(91,131,185)" stroke="rgb(91,131,185)" stroke-width="0" opacity="0.6470588235294118" d="M 214.5 192 L 214.5 193 L 214.5 192 Z " /><path fill="rgb(91,131,185)" stroke="rgb(91,131,185)" stroke-width="0" opacity="0.6470588235294118" d="M 136.5 193 L 137 194.5 L 136 194.5 L 136.5 193 Z " /><path fill="rgb(91,131,185)" stroke="rgb(91,131,185)" stroke-width="0" opacity="0.6470588235294118" d="M 215.5 194 Q 217.8 195.8 217 200.5 L 213.5 207 L 214 205.5 Q 216.6 202.6 216 196.5 L 215.5 194 Z " /><path fill="rgb(91,131,185)" stroke="rgb(91,131,185)" stroke-width="0" opacity="0.6470588235294118" d="M 332.5 195 Q 339.8 194.8 342 199.5 L 339.5 203 Q 328.5 205 325.5 199 L 318 206.5 L 318 209 Q 325.6 214.7 341.5 213 L 348.5 210 L 349 212 L 339.5 215 L 329.5 215 L 320.5 212 L 317 208.5 L 318 204.5 L 323.5 198 L 325.5 197 L 333.5 202 L 337.5 202 L 341 199.5 Q 338.9 195.6 332.5 196 L 332.5 195 Z " /><path fill="rgb(91,131,185)" stroke="rgb(91,131,185)" stroke-width="0" opacity="0.6470588235294118" d="M 135.5 196 L 136 197.5 L 135 197.5 L 135.5 196 Z " /><path fill="rgb(91,131,185)" stroke="rgb(91,131,185)" stroke-width="0" opacity="0.6470588235294118" d="M 147.5 198 L 148 200.5 L 145 212 L 131.5 212 L 131 210 L 133.5 211 L 144 211 L 147.5 198 Z " /><path fill="rgb(91,131,185)" stroke="rgb(91,131,185)" stroke-width="0" opacity="0.6470588235294118" d="M 134.5 200 L 134.5 201 L 134.5 200 Z " /><path fill="rgb(91,131,185)" stroke="rgb(91,131,185)" stroke-width="0" opacity="0.6470588235294118" d="M 92 207 L 96 208.5 Q 95.3 210.8 97.5 210 L 104 212.5 L 99.5 213 L 93.5 209 L 91.5 213 L 91 209.5 L 92 207 Z " /><path fill="rgb(91,131,185)" stroke="rgb(91,131,185)" stroke-width="0" opacity="0.6470588235294118" d="M 132.5 207 L 133 208.5 L 132 208.5 L 132.5 207 Z " /><path fill="rgb(91,131,185)" stroke="rgb(91,131,185)" stroke-width="0" opacity="0.6470588235294118" d="M 114.5 210 L 116 210.5 Q 114.3 213.8 108.5 213 L 108.5 212 Q 113.1 212.6 114.5 210 Z " /><path fill="rgb(91,131,185)" stroke="rgb(91,131,185)" stroke-width="0" opacity="0.6470588235294118" d="M 401 210 L 408.5 210 L 411 212.5 Q 411.8 218.3 408.5 220 Q 402.5 221.5 401 218.5 L 400 212.5 L 401 210 Z M 405 213 L 404 216 L 405 216 L 405 213 Z M 409 217 L 409 218 L 409 217 Z " /><path fill="rgb(91,131,185)" stroke="rgb(91,131,185)" stroke-width="0" opacity="0.6470588235294118" d="M 90.5 216 L 89.5 218 L 90.5 216 Z " /><path fill="rgb(91,131,185)" stroke="rgb(91,131,185)" stroke-width="0" opacity="0.6470588235294118" d="M 88.5 221 L 89 224.5 L 88 229 L 165 229.5 L 86 230 L 88.5 221 Z " /><path fill="rgb(91,131,185)" stroke="rgb(91,131,185)" stroke-width="0" opacity="0.6470588235294118" d="M 171.5 222 L 171.5 223 L 171.5 222 Z " /><path fill="rgb(91,131,185)" stroke="rgb(91,131,185)" stroke-width="0" opacity="0.6470588235294118" d="M 170.5 225 L 167.5 229 L 166 228.5 L 170.5 225 Z " /></svg>